<svg width="227" height="164" viewBox="0 0 227 164" fill="none" xmlns="http://www.w3.org/2000/svg">
<path d="M9.73434 23.4341C9.73434 23.4341 -10.1631 65.0059 9.25911 131.479C9.40375 131.976 9.57937 132.462 9.73434 132.948C24.4663 177.095 180.639 165.006 207.675 150.001C207.675 150.001 237.243 83.6304 210.248 21.1176C210.258 21.1176 100.729 -27.5793 9.73434 23.4341Z" fill="#315EFB"/>
<g style="mix-blend-mode:soft-light">
<mask id="mask0" mask-type="alpha" maskUnits="userSpaceOnUse" x="0" y="0" width="222" height="164">
<path d="M9.73434 23.4341C9.73434 23.4341 -10.1631 65.0059 9.25911 131.479C9.40375 131.976 9.57937 132.462 9.73434 132.948C24.4663 177.095 180.639 165.006 207.675 150.001C207.675 150.001 237.243 83.6304 210.248 21.1176C210.258 21.1176 100.729 -27.5793 9.73434 23.4341Z" fill="#315EFB"/>
</mask>
<g mask="url(#mask0)">
<g style="mix-blend-mode:soft-light">
<path d="M2.00024 44.5C2.00024 44.5 -3.97428 78.1751 9.11598 134.797C9.11598 134.797 14.6707 164.613 97.9919 169.423C171.259 173.656 208.871 153.205 208.871 153.205C208.871 153.205 223.364 128.28 225 116.12C225 116.12 134.876 152.419 46.0002 122.5C-4.4998 105.5 2.00024 44.5 2.00024 44.5Z" fill="url(#paint0_linear)"/>
</g>
</g>
</g>
<path d="M219.056 109.41L220 105.012C220 105.012 201.427 108.567 184.775 107.232C168.123 105.896 163.513 100.203 161.003 93C161.003 93 160.28 109.05 183.22 111.311C206.459 113.613 219.056 109.41 219.056 109.41Z" fill="#1642FA"/>
<path d="M223.217 105.223C223.217 105.223 228.383 90.745 224.653 68.4389C224.653 68.4389 210.386 60.3831 184.042 62.7409C157.698 65.0987 155.498 83.9094 160.508 97.8494C166.056 113.237 201.037 110.693 223.217 105.223Z" fill="#356BFF"/>
<circle cx="179" cy="87" r="14" fill="white"/>
<path d="M191.666 87.0002C191.666 93.9958 185.995 99.6668 179 99.6668C172.004 99.6668 166.333 93.9958 166.333 87.0002C166.333 87.0002 173 89.6668 181.666 84.3335C191.666 78.1798 191.666 87.0002 191.666 87.0002Z" fill="url(#paint1_linear)"/>
<path fill-rule="evenodd" clip-rule="evenodd" d="M174.655 84.9094C176.095 84.9094 177.262 83.7336 177.262 82.2833C177.262 80.833 176.095 79.6572 174.655 79.6572C173.216 79.6572 172.049 80.833 172.049 82.2833C172.049 83.7336 173.216 84.9094 174.655 84.9094Z" fill="#315EFB"/>
<path fill-rule="evenodd" clip-rule="evenodd" d="M183.344 93.6634C184.784 93.6634 185.951 92.4877 185.951 91.0373C185.951 89.587 184.784 88.4113 183.344 88.4113C181.905 88.4113 180.738 89.587 180.738 91.0373C180.738 92.4877 181.905 93.6634 183.344 93.6634Z" fill="#315EFB"/>
<path fill-rule="evenodd" clip-rule="evenodd" d="M183.278 80.5331C181.802 80.5331 180.605 81.739 180.605 83.2265C180.605 84.714 181.802 85.9199 183.278 85.9199C184.755 85.9199 185.952 84.714 185.952 83.2265C185.952 81.739 184.755 80.5331 183.278 80.5331Z" fill="#315EFB"/>
<path fill-rule="evenodd" clip-rule="evenodd" d="M174.724 89.1517C173.247 89.1517 172.05 90.3576 172.05 91.8452C172.05 93.3327 173.247 94.5386 174.724 94.5386C176.2 94.5386 177.397 93.3327 177.397 91.8452C177.397 90.3576 176.2 89.1517 174.724 89.1517Z" fill="#315EFB"/>
<defs>
<linearGradient id="paint0_linear" x1="234.323" y1="147.132" x2="-61.5752" y2="114.154" gradientUnits="userSpaceOnUse">
<stop/>
<stop offset="1" stop-opacity="0"/>
</linearGradient>
<linearGradient id="paint1_linear" x1="192.716" y1="96.4625" x2="159.255" y2="93.4658" gradientUnits="userSpaceOnUse">
<stop stop-color="#DADAFF"/>
<stop offset="1" stop-color="#EEEEFF" stop-opacity="0"/>
</linearGradient>
</defs>
</svg>
